<svg width="72" height="72" viewBox="0 0 72 72" fill="none" xmlns="http://www.w3.org/2000/svg">
<path d="M45 39H49.5V47.46L56.82 51.69L54.57 55.59L45 50.07V39ZM57 24H15V57H29.01C27.72 54.27 27 51.21 27 48C27 42.4305 29.2125 37.089 33.1508 33.1508C37.089 29.2125 42.4305 27 48 27C51.21 27 54.27 27.72 57 29.01V24ZM15 63C13.4087 63 11.8826 62.3679 10.7574 61.2426C9.63214 60.1174 9 58.5913 9 57V15C9 11.67 11.67 9 15 9H18V3H24V9H48V3H54V9H57C58.5913 9 60.1174 9.63214 61.2426 10.7574C62.3679 11.8826 63 13.4087 63 15V33.3C66.72 37.08 69 42.27 69 48C69 53.5695 66.7875 58.911 62.8492 62.8492C58.911 66.7875 53.5695 69 48 69C42.27 69 37.08 66.72 33.3 63H15ZM48 33.45C44.1411 33.45 40.4402 34.9829 37.7116 37.7116C34.9829 40.4403 33.45 44.1411 33.45 48C33.45 56.04 39.96 62.55 48 62.55C49.9107 62.55 51.8028 62.1737 53.568 61.4424C55.3333 60.7112 56.9373 59.6395 58.2884 58.2884C59.6395 56.9373 60.7112 55.3333 61.4424 53.568C62.1736 51.8028 62.55 49.9107 62.55 48C62.55 39.96 56.04 33.45 48 33.45Z" fill="#2385D5"/>
</svg>
