<svg width="72" height="72" viewBox="0 0 72 72" fill="none" xmlns="http://www.w3.org/2000/svg">
<mask id="mask0_145_812" style="mask-type:luminance" maskUnits="userSpaceOnUse" x="5" y="7" width="62" height="58">
<path d="M7.5 12C7.5 11.2044 7.81607 10.4413 8.37868 9.87868C8.94129 9.31607 9.70435 9 10.5 9H28.5L36 18H61.5C62.2957 18 63.0587 18.3161 63.6213 18.8787C64.1839 19.4413 64.5 20.2044 64.5 21V60C64.5 60.7957 64.1839 61.5587 63.6213 62.1213C63.0587 62.6839 62.2957 63 61.5 63H10.5C9.70435 63 8.94129 62.6839 8.37868 62.1213C7.81607 61.5587 7.5 60.7957 7.5 60V12Z" fill="white" stroke="white" stroke-width="4" stroke-linejoin="round"/>
<path d="M27 43.5L34.5 49.5L48 33" stroke="black" stroke-width="4" stroke-linecap="round" stroke-linejoin="round"/>
</mask>
<g mask="url(#mask0_145_812)">
<path d="M0 0H72V72H0V0Z" fill="#2385D5"/>
</g>
</svg>
