<svg width="73" height="72" viewBox="0 0 73 72" fill="none" xmlns="http://www.w3.org/2000/svg">
<path d="M44.75 45C47.648 45 50 47.352 50 50.25L49.997 53.136C50.348 59.706 45.464 63.027 36.701 63.027C27.971 63.027 23 59.757 23 53.25V50.25C23 47.352 25.352 45 28.25 45H44.75ZM11.75 30H24.878C24.3546 32.037 24.3747 34.1756 24.9364 36.2024C25.4981 38.2291 26.5817 40.0731 28.079 41.55L28.565 42.003L28.25 42C26.4495 41.9993 24.6982 42.5877 23.2633 43.6754C21.8285 44.7631 20.7888 46.2903 20.303 48.024L20.201 48.027C11.471 48.027 6.5 44.757 6.5 38.25V35.25C6.5 32.352 8.852 30 11.75 30ZM61.25 30C64.148 30 66.5 32.352 66.5 35.25L66.497 38.136C66.848 44.706 61.964 48.027 53.201 48.027L52.694 48.021C52.2328 46.3869 51.2796 44.9344 49.9641 43.861C48.6485 42.7875 47.0344 42.1451 45.341 42.021L44.75 42L44.435 42.003C46.1003 40.5403 47.3268 38.6439 47.9778 36.5251C48.6288 34.4064 48.6787 32.1485 48.122 30.003L61.25 30ZM36.5 24C37.6819 24 38.8522 24.2328 39.9442 24.6851C41.0361 25.1374 42.0282 25.8003 42.864 26.636C43.6997 27.4718 44.3626 28.4639 44.8149 29.5558C45.2672 30.6478 45.5 31.8181 45.5 33C45.5 34.1819 45.2672 35.3522 44.8149 36.4442C44.3626 37.5361 43.6997 38.5282 42.864 39.364C42.0282 40.1997 41.0361 40.8626 39.9442 41.3149C38.8522 41.7672 37.6819 42 36.5 42C34.1131 42 31.8239 41.0518 30.136 39.364C28.4482 37.6761 27.5 35.3869 27.5 33C27.5 30.6131 28.4482 28.3239 30.136 26.636C31.8239 24.9482 34.1131 24 36.5 24ZM20 9C22.3869 9 24.6761 9.94821 26.364 11.636C28.0518 13.3239 29 15.6131 29 18C29 20.3869 28.0518 22.6761 26.364 24.364C24.6761 26.0518 22.3869 27 20 27C17.6131 27 15.3239 26.0518 13.636 24.364C11.9482 22.6761 11 20.3869 11 18C11 15.6131 11.9482 13.3239 13.636 11.636C15.3239 9.94821 17.6131 9 20 9ZM53 9C55.3869 9 57.6761 9.94821 59.364 11.636C61.0518 13.3239 62 15.6131 62 18C62 20.3869 61.0518 22.6761 59.364 24.364C57.6761 26.0518 55.3869 27 53 27C50.6131 27 48.3239 26.0518 46.636 24.364C44.9482 22.6761 44 20.3869 44 18C44 15.6131 44.9482 13.3239 46.636 11.636C48.3239 9.94821 50.6131 9 53 9Z" fill="#2385D5"/>
</svg>
